<?xml version="1.0" encoding="UTF-8"?>
<svg xmlns="http://www.w3.org/2000/svg" width="800" height="600">
  <rect width="100%" height="100%" fill="white"/>
  <line x1="60.000000" y1="300.000000" x2="740.000000" y2="300.000000" stroke="gray" stroke-width="1"/>
  <line x1="574.594595" y1="540.000000" x2="574.594595" y2="60.000000" stroke="gray" stroke-width="1"/>
  <circle cx="519.459459" cy="540.000000" r="3" fill="#3e4a89"/>
  <circle cx="528.648649" cy="528.837209" r="3" fill="#3e4a89"/>
  <circle cx="537.837838" cy="517.674419" r="3" fill="#3e4a89"/>
  <circle cx="537.837838" cy="512.093023" r="3" fill="#3e4a89"/>
  <circle cx="519.459459" cy="506.511628" r="3" fill="#3e4a89"/>
  <circle cx="528.648649" cy="506.511628" r="3" fill="#3e4a89"/>
  <circle cx="537.837838" cy="506.511628" r="3" fill="#3e4a89"/>
  <circle cx="519.459459" cy="500.930233" r="3" fill="#3e4a89"/>
  <circle cx="547.027027" cy="500.930233" r="3" fill="#3e4a89"/>
  <circle cx="473.513514" cy="495.348837" r="3" fill="#3e4a89"/>
  <circle cx="537.837838" cy="495.348837" r="3" fill="#3e4a89"/>
  <circle cx="547.027027" cy="495.348837" r="3" fill="#3e4a89"/>
  <circle cx="556.216216" cy="495.348837" r="3" fill="#3e4a89"/>
  <circle cx="574.594595" cy="495.348837" r="3" fill="#3e4a89"/>
  <circle cx="482.702703" cy="489.767442" r="3" fill="#3e4a89"/>
  <circle cx="491.891892" cy="489.767442" r="3" fill="#3e4a89"/>
  <circle cx="501.081081" cy="489.767442" r="3" fill="#3e4a89"/>
  <circle cx="556.216216" cy="489.767442" r="3" fill="#3e4a89"/>
  <circle cx="565.405405" cy="489.767442" r="3" fill="#3e4a89"/>
  <circle cx="574.594595" cy="489.767442" r="3" fill="#3e4a89"/>
  <circle cx="491.891892" cy="484.186047" r="3" fill="#3e4a89"/>
  <circle cx="574.594595" cy="484.186047" r="3" fill="#3e4a89"/>
  <circle cx="482.702703" cy="478.604651" r="3" fill="#3e4a89"/>
  <circle cx="491.891892" cy="478.604651" r="3" fill="#3e4a89"/>
  <circle cx="565.405405" cy="478.604651" r="3" fill="#3e4a89"/>
  <circle cx="574.594595" cy="473.023256" r="3" fill="#3e4a89"/>
  <circle cx="565.405405" cy="467.441860" r="3" fill="#3e4a89"/>
  <circle cx="491.891892" cy="461.860465" r="3" fill="#3e4a89"/>
  <circle cx="565.405405" cy="461.860465" r="3" fill="#3e4a89"/>
  <circle cx="381.621622" cy="456.279070" r="3" fill="#3e4a89"/>
  <circle cx="436.756757" cy="456.279070" r="3" fill="#3e4a89"/>
  <circle cx="501.081081" cy="456.279070" r="3" fill="#3e4a89"/>
  <circle cx="592.972973" cy="456.279070" r="3" fill="#3e4a89"/>
  <circle cx="363.243243" cy="450.697674" r="3" fill="#3e4a89"/>
  <circle cx="372.432432" cy="450.697674" r="3" fill="#3e4a89"/>
  <circle cx="436.756757" cy="450.697674" r="3" fill="#3e4a89"/>
  <circle cx="445.945946" cy="450.697674" r="3" fill="#3e4a89"/>
  <circle cx="464.324324" cy="450.697674" r="3" fill="#3e4a89"/>
  <circle cx="473.513514" cy="450.697674" r="3" fill="#3e4a89"/>
  <circle cx="482.702703" cy="450.697674" r="3" fill="#3e4a89"/>
  <circle cx="491.891892" cy="450.697674" r="3" fill="#3e4a89"/>
  <circle cx="501.081081" cy="450.697674" r="3" fill="#3e4a89"/>
  <circle cx="556.216216" cy="450.697674" r="3" fill="#3e4a89"/>
  <circle cx="565.405405" cy="450.697674" r="3" fill="#3e4a89"/>
  <circle cx="574.594595" cy="450.697674" r="3" fill="#3e4a89"/>
  <circle cx="583.783784" cy="450.697674" r="3" fill="#3e4a89"/>
  <circle cx="592.972973" cy="450.697674" r="3" fill="#3e4a89"/>
  <circle cx="602.162162" cy="450.697674" r="3" fill="#3e4a89"/>
  <circle cx="620.540541" cy="450.697674" r="3" fill="#3e4a89"/>
  <circle cx="629.729730" cy="450.697674" r="3" fill="#3e4a89"/>
  <circle cx="363.243243" cy="445.116279" r="3" fill="#3e4a89"/>
  <circle cx="372.432432" cy="445.116279" r="3" fill="#3e4a89"/>
  <circle cx="381.621622" cy="445.116279" r="3" fill="#3e4a89"/>
  <circle cx="400.000000" cy="445.116279" r="3" fill="#3e4a89"/>
  <circle cx="602.162162" cy="445.116279" r="3" fill="#3e4a89"/>
  <circle cx="611.351351" cy="445.116279" r="3" fill="#3e4a89"/>
  <circle cx="666.486486" cy="445.116279" r="3" fill="#3e4a89"/>
  <circle cx="372.432432" cy="439.534884" r="3" fill="#3e4a89"/>
  <circle cx="400.000000" cy="439.534884" r="3" fill="#3e4a89"/>
  <circle cx="418.378378" cy="439.534884" r="3" fill="#3e4a89"/>
  <circle cx="427.567568" cy="439.534884" r="3" fill="#3e4a89"/>
  <circle cx="436.756757" cy="439.534884" r="3" fill="#3e4a89"/>
  <circle cx="675.675676" cy="439.534884" r="3" fill="#3e4a89"/>
  <circle cx="363.243243" cy="433.953488" r="3" fill="#3e4a89"/>
  <circle cx="372.432432" cy="433.953488" r="3" fill="#3e4a89"/>
  <circle cx="409.189189" cy="433.953488" r="3" fill="#3e4a89"/>
  <circle cx="666.486486" cy="433.953488" r="3" fill="#3e4a89"/>
  <circle cx="684.864865" cy="433.953488" r="3" fill="#3e4a89"/>
  <circle cx="703.243243" cy="433.953488" r="3" fill="#3e4a89"/>
  <circle cx="712.432432" cy="433.953488" r="3" fill="#3e4a89"/>
  <circle cx="363.243243" cy="428.372093" r="3" fill="#3e4a89"/>
  <circle cx="703.243243" cy="428.372093" r="3" fill="#3e4a89"/>
  <circle cx="372.432432" cy="422.790698" r="3" fill="#3e4a89"/>
  <circle cx="657.297297" cy="422.790698" r="3" fill="#3e4a89"/>
  <circle cx="363.243243" cy="417.209302" r="3" fill="#3e4a89"/>
  <circle cx="372.432432" cy="417.209302" r="3" fill="#3e4a89"/>
  <circle cx="381.621622" cy="417.209302" r="3" fill="#3e4a89"/>
  <circle cx="694.054054" cy="417.209302" r="3" fill="#3e4a89"/>
  <circle cx="703.243243" cy="417.209302" r="3" fill="#3e4a89"/>
  <circle cx="335.675676" cy="411.627907" r="3" fill="#3e4a89"/>
  <circle cx="363.243243" cy="411.627907" r="3" fill="#3e4a89"/>
  <circle cx="684.864865" cy="411.627907" r="3" fill="#3e4a89"/>
  <circle cx="326.486486" cy="406.046512" r="3" fill="#3e4a89"/>
  <circle cx="335.675676" cy="406.046512" r="3" fill="#3e4a89"/>
  <circle cx="344.864865" cy="406.046512" r="3" fill="#3e4a89"/>
  <circle cx="363.243243" cy="406.046512" r="3" fill="#3e4a89"/>
  <circle cx="326.486486" cy="400.465116" r="3" fill="#3e4a89"/>
  <circle cx="335.675676" cy="400.465116" r="3" fill="#3e4a89"/>
  <circle cx="703.243243" cy="400.465116" r="3" fill="#3e4a89"/>
  <circle cx="335.675676" cy="394.883721" r="3" fill="#3e4a89"/>
  <circle cx="703.243243" cy="394.883721" r="3" fill="#3e4a89"/>
  <circle cx="335.675676" cy="389.302326" r="3" fill="#3e4a89"/>
  <circle cx="740.000000" cy="389.302326" r="3" fill="#3e4a89"/>
  <circle cx="308.108108" cy="383.720930" r="3" fill="#3e4a89"/>
  <circle cx="317.297297" cy="383.720930" r="3" fill="#3e4a89"/>
  <circle cx="326.486486" cy="383.720930" r="3" fill="#3e4a89"/>
  <circle cx="335.675676" cy="383.720930" r="3" fill="#3e4a89"/>
  <circle cx="721.621622" cy="383.720930" r="3" fill="#3e4a89"/>
  <circle cx="151.891892" cy="378.139535" r="3" fill="#3e4a89"/>
  <circle cx="317.297297" cy="378.139535" r="3" fill="#3e4a89"/>
  <circle cx="730.810811" cy="378.139535" r="3" fill="#3e4a89"/>
  <circle cx="740.000000" cy="378.139535" r="3" fill="#3e4a89"/>
  <circle cx="133.513514" cy="372.558140" r="3" fill="#3e4a89"/>
  <circle cx="151.891892" cy="372.558140" r="3" fill="#3e4a89"/>
  <circle cx="234.594595" cy="372.558140" r="3" fill="#3e4a89"/>
  <circle cx="721.621622" cy="372.558140" r="3" fill="#3e4a89"/>
  <circle cx="133.513514" cy="366.976744" r="3" fill="#3e4a89"/>
  <circle cx="142.702703" cy="366.976744" r="3" fill="#3e4a89"/>
  <circle cx="151.891892" cy="366.976744" r="3" fill="#3e4a89"/>
  <circle cx="161.081081" cy="366.976744" r="3" fill="#3e4a89"/>
  <circle cx="179.459459" cy="366.976744" r="3" fill="#3e4a89"/>
  <circle cx="197.837838" cy="366.976744" r="3" fill="#3e4a89"/>
  <circle cx="207.027027" cy="366.976744" r="3" fill="#3e4a89"/>
  <circle cx="216.216216" cy="366.976744" r="3" fill="#3e4a89"/>
  <circle cx="234.594595" cy="366.976744" r="3" fill="#3e4a89"/>
  <circle cx="308.108108" cy="366.976744" r="3" fill="#3e4a89"/>
  <circle cx="142.702703" cy="361.395349" r="3" fill="#3e4a89"/>
  <circle cx="179.459459" cy="361.395349" r="3" fill="#3e4a89"/>
  <circle cx="197.837838" cy="361.395349" r="3" fill="#3e4a89"/>
  <circle cx="216.216216" cy="361.395349" r="3" fill="#3e4a89"/>
  <circle cx="225.405405" cy="361.395349" r="3" fill="#3e4a89"/>
  <circle cx="234.594595" cy="361.395349" r="3" fill="#3e4a89"/>
  <circle cx="243.783784" cy="361.395349" r="3" fill="#3e4a89"/>
  <circle cx="252.972973" cy="361.395349" r="3" fill="#3e4a89"/>
  <circle cx="142.702703" cy="355.813953" r="3" fill="#3e4a89"/>
  <circle cx="170.270270" cy="355.813953" r="3" fill="#3e4a89"/>
  <circle cx="243.783784" cy="355.813953" r="3" fill="#3e4a89"/>
  <circle cx="252.972973" cy="355.813953" r="3" fill="#3e4a89"/>
  <circle cx="721.621622" cy="355.813953" r="3" fill="#3e4a89"/>
  <circle cx="142.702703" cy="350.232558" r="3" fill="#3e4a89"/>
  <circle cx="262.162162" cy="350.232558" r="3" fill="#3e4a89"/>
  <circle cx="730.810811" cy="350.232558" r="3" fill="#3e4a89"/>
  <circle cx="133.513514" cy="344.651163" r="3" fill="#3e4a89"/>
  <circle cx="142.702703" cy="344.651163" r="3" fill="#3e4a89"/>
  <circle cx="271.351351" cy="344.651163" r="3" fill="#3e4a89"/>
  <circle cx="712.432432" cy="344.651163" r="3" fill="#3e4a89"/>
  <circle cx="721.621622" cy="344.651163" r="3" fill="#3e4a89"/>
  <circle cx="115.135135" cy="339.069767" r="3" fill="#3e4a89"/>
  <circle cx="124.324324" cy="339.069767" r="3" fill="#3e4a89"/>
  <circle cx="133.513514" cy="339.069767" r="3" fill="#3e4a89"/>
  <circle cx="712.432432" cy="339.069767" r="3" fill="#3e4a89"/>
  <circle cx="124.324324" cy="333.488372" r="3" fill="#3e4a89"/>
  <circle cx="289.729730" cy="333.488372" r="3" fill="#3e4a89"/>
  <circle cx="298.918919" cy="333.488372" r="3" fill="#3e4a89"/>
  <circle cx="721.621622" cy="333.488372" r="3" fill="#3e4a89"/>
  <circle cx="60.000000" cy="327.906977" r="3" fill="#3e4a89"/>
  <circle cx="115.135135" cy="327.906977" r="3" fill="#3e4a89"/>
  <circle cx="124.324324" cy="327.906977" r="3" fill="#3e4a89"/>
  <circle cx="298.918919" cy="327.906977" r="3" fill="#3e4a89"/>
  <circle cx="69.189189" cy="322.325581" r="3" fill="#3e4a89"/>
  <circle cx="115.135135" cy="322.325581" r="3" fill="#3e4a89"/>
  <circle cx="298.918919" cy="322.325581" r="3" fill="#3e4a89"/>
  <circle cx="69.189189" cy="316.744186" r="3" fill="#3e4a89"/>
  <circle cx="78.378378" cy="316.744186" r="3" fill="#3e4a89"/>
  <circle cx="87.567568" cy="316.744186" r="3" fill="#3e4a89"/>
  <circle cx="96.756757" cy="316.744186" r="3" fill="#3e4a89"/>
  <circle cx="105.945946" cy="316.744186" r="3" fill="#3e4a89"/>
  <circle cx="298.918919" cy="316.744186" r="3" fill="#3e4a89"/>
  <circle cx="703.243243" cy="316.744186" r="3" fill="#3e4a89"/>
  <circle cx="78.378378" cy="311.162791" r="3" fill="#3e4a89"/>
  <circle cx="298.918919" cy="311.162791" r="3" fill="#3e4a89"/>
  <circle cx="60.000000" cy="305.581395" r="3" fill="#3e4a89"/>
  <circle cx="69.189189" cy="305.581395" r="3" fill="#3e4a89"/>
  <circle cx="684.864865" cy="305.581395" r="3" fill="#3e4a89"/>
  <circle cx="60.000000" cy="294.418605" r="3" fill="#3e4a89"/>
  <circle cx="69.189189" cy="294.418605" r="3" fill="#3e4a89"/>
  <circle cx="684.864865" cy="294.418605" r="3" fill="#3e4a89"/>
  <circle cx="78.378378" cy="288.837209" r="3" fill="#3e4a89"/>
  <circle cx="298.918919" cy="288.837209" r="3" fill="#3e4a89"/>
  <circle cx="69.189189" cy="283.255814" r="3" fill="#3e4a89"/>
  <circle cx="78.378378" cy="283.255814" r="3" fill="#3e4a89"/>
  <circle cx="87.567568" cy="283.255814" r="3" fill="#3e4a89"/>
  <circle cx="96.756757" cy="283.255814" r="3" fill="#3e4a89"/>
  <circle cx="105.945946" cy="283.255814" r="3" fill="#3e4a89"/>
  <circle cx="298.918919" cy="283.255814" r="3" fill="#3e4a89"/>
  <circle cx="703.243243" cy="283.255814" r="3" fill="#3e4a89"/>
  <circle cx="69.189189" cy="277.674419" r="3" fill="#3e4a89"/>
  <circle cx="115.135135" cy="277.674419" r="3" fill="#3e4a89"/>
  <circle cx="298.918919" cy="277.674419" r="3" fill="#3e4a89"/>
  <circle cx="60.000000" cy="272.093023" r="3" fill="#3e4a89"/>
  <circle cx="115.135135" cy="272.093023" r="3" fill="#3e4a89"/>
  <circle cx="124.324324" cy="272.093023" r="3" fill="#3e4a89"/>
  <circle cx="298.918919" cy="272.093023" r="3" fill="#3e4a89"/>
  <circle cx="124.324324" cy="266.511628" r="3" fill="#3e4a89"/>
  <circle cx="289.729730" cy="266.511628" r="3" fill="#3e4a89"/>
  <circle cx="298.918919" cy="266.511628" r="3" fill="#3e4a89"/>
  <circle cx="721.621622" cy="266.511628" r="3" fill="#3e4a89"/>
  <circle cx="115.135135" cy="260.930233" r="3" fill="#3e4a89"/>
  <circle cx="124.324324" cy="260.930233" r="3" fill="#3e4a89"/>
  <circle cx="133.513514" cy="260.930233" r="3" fill="#3e4a89"/>
  <circle cx="712.432432" cy="260.930233" r="3" fill="#3e4a89"/>
  <circle cx="133.513514" cy="255.348837" r="3" fill="#3e4a89"/>
  <circle cx="142.702703" cy="255.348837" r="3" fill="#3e4a89"/>
  <circle cx="271.351351" cy="255.348837" r="3" fill="#3e4a89"/>
  <circle cx="712.432432" cy="255.348837" r="3" fill="#3e4a89"/>
  <circle cx="721.621622" cy="255.348837" r="3" fill="#3e4a89"/>
  <circle cx="142.702703" cy="249.767442" r="3" fill="#3e4a89"/>
  <circle cx="262.162162" cy="249.767442" r="3" fill="#3e4a89"/>
  <circle cx="730.810811" cy="249.767442" r="3" fill="#3e4a89"/>
  <circle cx="142.702703" cy="244.186047" r="3" fill="#3e4a89"/>
  <circle cx="170.270270" cy="244.186047" r="3" fill="#3e4a89"/>
  <circle cx="243.783784" cy="244.186047" r="3" fill="#3e4a89"/>
  <circle cx="252.972973" cy="244.186047" r="3" fill="#3e4a89"/>
  <circle cx="721.621622" cy="244.186047" r="3" fill="#3e4a89"/>
  <circle cx="142.702703" cy="238.604651" r="3" fill="#3e4a89"/>
  <circle cx="179.459459" cy="238.604651" r="3" fill="#3e4a89"/>
  <circle cx="197.837838" cy="238.604651" r="3" fill="#3e4a89"/>
  <circle cx="216.216216" cy="238.604651" r="3" fill="#3e4a89"/>
  <circle cx="225.405405" cy="238.604651" r="3" fill="#3e4a89"/>
  <circle cx="234.594595" cy="238.604651" r="3" fill="#3e4a89"/>
  <circle cx="243.783784" cy="238.604651" r="3" fill="#3e4a89"/>
  <circle cx="252.972973" cy="238.604651" r="3" fill="#3e4a89"/>
  <circle cx="133.513514" cy="233.023256" r="3" fill="#3e4a89"/>
  <circle cx="142.702703" cy="233.023256" r="3" fill="#3e4a89"/>
  <circle cx="151.891892" cy="233.023256" r="3" fill="#3e4a89"/>
  <circle cx="161.081081" cy="233.023256" r="3" fill="#3e4a89"/>
  <circle cx="179.459459" cy="233.023256" r="3" fill="#3e4a89"/>
  <circle cx="197.837838" cy="233.023256" r="3" fill="#3e4a89"/>
  <circle cx="207.027027" cy="233.023256" r="3" fill="#3e4a89"/>
  <circle cx="216.216216" cy="233.023256" r="3" fill="#3e4a89"/>
  <circle cx="234.594595" cy="233.023256" r="3" fill="#3e4a89"/>
  <circle cx="308.108108" cy="233.023256" r="3" fill="#3e4a89"/>
  <circle cx="133.513514" cy="227.441860" r="3" fill="#3e4a89"/>
  <circle cx="151.891892" cy="227.441860" r="3" fill="#3e4a89"/>
  <circle cx="234.594595" cy="227.441860" r="3" fill="#3e4a89"/>
  <circle cx="721.621622" cy="227.441860" r="3" fill="#3e4a89"/>
  <circle cx="151.891892" cy="221.860465" r="3" fill="#3e4a89"/>
  <circle cx="317.297297" cy="221.860465" r="3" fill="#3e4a89"/>
  <circle cx="730.810811" cy="221.860465" r="3" fill="#3e4a89"/>
  <circle cx="740.000000" cy="221.860465" r="3" fill="#3e4a89"/>
  <circle cx="308.108108" cy="216.279070" r="3" fill="#3e4a89"/>
  <circle cx="317.297297" cy="216.279070" r="3" fill="#3e4a89"/>
  <circle cx="326.486486" cy="216.279070" r="3" fill="#3e4a89"/>
  <circle cx="335.675676" cy="216.279070" r="3" fill="#3e4a89"/>
  <circle cx="721.621622" cy="216.279070" r="3" fill="#3e4a89"/>
  <circle cx="335.675676" cy="210.697674" r="3" fill="#3e4a89"/>
  <circle cx="740.000000" cy="210.697674" r="3" fill="#3e4a89"/>
  <circle cx="335.675676" cy="205.116279" r="3" fill="#3e4a89"/>
  <circle cx="703.243243" cy="205.116279" r="3" fill="#3e4a89"/>
  <circle cx="326.486486" cy="199.534884" r="3" fill="#3e4a89"/>
  <circle cx="335.675676" cy="199.534884" r="3" fill="#3e4a89"/>
  <circle cx="703.243243" cy="199.534884" r="3" fill="#3e4a89"/>
  <circle cx="326.486486" cy="193.953488" r="3" fill="#3e4a89"/>
  <circle cx="335.675676" cy="193.953488" r="3" fill="#3e4a89"/>
  <circle cx="344.864865" cy="193.953488" r="3" fill="#3e4a89"/>
  <circle cx="363.243243" cy="193.953488" r="3" fill="#3e4a89"/>
  <circle cx="335.675676" cy="188.372093" r="3" fill="#3e4a89"/>
  <circle cx="363.243243" cy="188.372093" r="3" fill="#3e4a89"/>
  <circle cx="684.864865" cy="188.372093" r="3" fill="#3e4a89"/>
  <circle cx="363.243243" cy="182.790698" r="3" fill="#3e4a89"/>
  <circle cx="372.432432" cy="182.790698" r="3" fill="#3e4a89"/>
  <circle cx="381.621622" cy="182.790698" r="3" fill="#3e4a89"/>
  <circle cx="694.054054" cy="182.790698" r="3" fill="#3e4a89"/>
  <circle cx="703.243243" cy="182.790698" r="3" fill="#3e4a89"/>
  <circle cx="372.432432" cy="177.209302" r="3" fill="#3e4a89"/>
  <circle cx="657.297297" cy="177.209302" r="3" fill="#3e4a89"/>
  <circle cx="363.243243" cy="171.627907" r="3" fill="#3e4a89"/>
  <circle cx="703.243243" cy="171.627907" r="3" fill="#3e4a89"/>
  <circle cx="363.243243" cy="166.046512" r="3" fill="#3e4a89"/>
  <circle cx="372.432432" cy="166.046512" r="3" fill="#3e4a89"/>
  <circle cx="409.189189" cy="166.046512" r="3" fill="#3e4a89"/>
  <circle cx="666.486486" cy="166.046512" r="3" fill="#3e4a89"/>
  <circle cx="684.864865" cy="166.046512" r="3" fill="#3e4a89"/>
  <circle cx="703.243243" cy="166.046512" r="3" fill="#3e4a89"/>
  <circle cx="712.432432" cy="166.046512" r="3" fill="#3e4a89"/>
  <circle cx="372.432432" cy="160.465116" r="3" fill="#3e4a89"/>
  <circle cx="400.000000" cy="160.465116" r="3" fill="#3e4a89"/>
  <circle cx="418.378378" cy="160.465116" r="3" fill="#3e4a89"/>
  <circle cx="427.567568" cy="160.465116" r="3" fill="#3e4a89"/>
  <circle cx="436.756757" cy="160.465116" r="3" fill="#3e4a89"/>
  <circle cx="675.675676" cy="160.465116" r="3" fill="#3e4a89"/>
  <circle cx="363.243243" cy="154.883721" r="3" fill="#3e4a89"/>
  <circle cx="372.432432" cy="154.883721" r="3" fill="#3e4a89"/>
  <circle cx="381.621622" cy="154.883721" r="3" fill="#3e4a89"/>
  <circle cx="400.000000" cy="154.883721" r="3" fill="#3e4a89"/>
  <circle cx="602.162162" cy="154.883721" r="3" fill="#3e4a89"/>
  <circle cx="611.351351" cy="154.883721" r="3" fill="#3e4a89"/>
  <circle cx="666.486486" cy="154.883721" r="3" fill="#3e4a89"/>
  <circle cx="363.243243" cy="149.302326" r="3" fill="#3e4a89"/>
  <circle cx="372.432432" cy="149.302326" r="3" fill="#3e4a89"/>
  <circle cx="436.756757" cy="149.302326" r="3" fill="#3e4a89"/>
  <circle cx="445.945946" cy="149.302326" r="3" fill="#3e4a89"/>
  <circle cx="464.324324" cy="149.302326" r="3" fill="#3e4a89"/>
  <circle cx="473.513514" cy="149.302326" r="3" fill="#3e4a89"/>
  <circle cx="482.702703" cy="149.302326" r="3" fill="#3e4a89"/>
  <circle cx="491.891892" cy="149.302326" r="3" fill="#3e4a89"/>
  <circle cx="501.081081" cy="149.302326" r="3" fill="#3e4a89"/>
  <circle cx="556.216216" cy="149.302326" r="3" fill="#3e4a89"/>
  <circle cx="565.405405" cy="149.302326" r="3" fill="#3e4a89"/>
  <circle cx="574.594595" cy="149.302326" r="3" fill="#3e4a89"/>
  <circle cx="583.783784" cy="149.302326" r="3" fill="#3e4a89"/>
  <circle cx="592.972973" cy="149.302326" r="3" fill="#3e4a89"/>
  <circle cx="602.162162" cy="149.302326" r="3" fill="#3e4a89"/>
  <circle cx="620.540541" cy="149.302326" r="3" fill="#3e4a89"/>
  <circle cx="629.729730" cy="149.302326" r="3" fill="#3e4a89"/>
  <circle cx="381.621622" cy="143.720930" r="3" fill="#3e4a89"/>
  <circle cx="436.756757" cy="143.720930" r="3" fill="#3e4a89"/>
  <circle cx="501.081081" cy="143.720930" r="3" fill="#3e4a89"/>
  <circle cx="592.972973" cy="143.720930" r="3" fill="#3e4a89"/>
  <circle cx="491.891892" cy="138.139535" r="3" fill="#3e4a89"/>
  <circle cx="565.405405" cy="138.139535" r="3" fill="#3e4a89"/>
  <circle cx="565.405405" cy="132.558140" r="3" fill="#3e4a89"/>
  <circle cx="574.594595" cy="126.976744" r="3" fill="#3e4a89"/>
  <circle cx="482.702703" cy="121.395349" r="3" fill="#3e4a89"/>
  <circle cx="491.891892" cy="121.395349" r="3" fill="#3e4a89"/>
  <circle cx="565.405405" cy="121.395349" r="3" fill="#3e4a89"/>
  <circle cx="491.891892" cy="115.813953" r="3" fill="#3e4a89"/>
  <circle cx="574.594595" cy="115.813953" r="3" fill="#3e4a89"/>
  <circle cx="482.702703" cy="110.232558" r="3" fill="#3e4a89"/>
  <circle cx="491.891892" cy="110.232558" r="3" fill="#3e4a89"/>
  <circle cx="501.081081" cy="110.232558" r="3" fill="#3e4a89"/>
  <circle cx="556.216216" cy="110.232558" r="3" fill="#3e4a89"/>
  <circle cx="565.405405" cy="110.232558" r="3" fill="#3e4a89"/>
  <circle cx="574.594595" cy="110.232558" r="3" fill="#3e4a89"/>
  <circle cx="473.513514" cy="104.651163" r="3" fill="#3e4a89"/>
  <circle cx="537.837838" cy="104.651163" r="3" fill="#3e4a89"/>
  <circle cx="547.027027" cy="104.651163" r="3" fill="#3e4a89"/>
  <circle cx="556.216216" cy="104.651163" r="3" fill="#3e4a89"/>
  <circle cx="574.594595" cy="104.651163" r="3" fill="#3e4a89"/>
  <circle cx="519.459459" cy="99.069767" r="3" fill="#3e4a89"/>
  <circle cx="547.027027" cy="99.069767" r="3" fill="#3e4a89"/>
  <circle cx="519.459459" cy="93.488372" r="3" fill="#3e4a89"/>
  <circle cx="528.648649" cy="93.488372" r="3" fill="#3e4a89"/>
  <circle cx="537.837838" cy="93.488372" r="3" fill="#3e4a89"/>
  <circle cx="537.837838" cy="87.906977" r="3" fill="#3e4a89"/>
  <circle cx="537.837838" cy="82.325581" r="3" fill="#3e4a89"/>
  <circle cx="528.648649" cy="71.162791" r="3" fill="#3e4a89"/>
  <circle cx="519.459459" cy="60.000000" r="3" fill="#3e4a89"/>
</svg>
