<?xml version="1.0" encoding="UTF-8"?>
<svg xmlns="http://www.w3.org/2000/svg" width="400" height="400" viewBox="0 0 400 400">
  <defs>
    <marker id="arrow" markerWidth="10" markerHeight="10" refX="9" refY="3" orient="auto" markerUnits="strokeWidth">
      <path d="M0,0 L0,6 L9,3 z" fill="blue" />
    </marker>
  </defs>
  <rect width="100%" height="100%" fill="white"/>
  <text x="10" y="20" font-family="monospace" font-size="12">Rotor Vector Field</text>
<line x1="16.670000" y1="383.330000" x2="10.930000" y2="369.480000" stroke="blue" stroke-width="1" marker-end="url(#arrow)"/>
<line x1="16.670000" y1="350.000000" x2="12.330000" y2="335.640000" stroke="blue" stroke-width="1" marker-end="url(#arrow)"/>
<line x1="16.670000" y1="316.670000" x2="14.070000" y2="301.890000" stroke="blue" stroke-width="1" marker-end="url(#arrow)"/>
<line x1="16.670000" y1="283.330000" x2="16.160000" y2="268.340000" stroke="blue" stroke-width="1" marker-end="url(#arrow)"/>
<line x1="16.670000" y1="250.000000" x2="18.560000" y2="235.120000" stroke="blue" stroke-width="1" marker-end="url(#arrow)"/>
<line x1="16.670000" y1="216.670000" x2="21.130000" y2="202.350000" stroke="blue" stroke-width="1" marker-end="url(#arrow)"/>
<line x1="16.670000" y1="183.330000" x2="23.640000" y2="170.050000" stroke="blue" stroke-width="1" marker-end="url(#arrow)"/>
<line x1="16.670000" y1="150.000000" x2="25.850000" y2="138.140000" stroke="blue" stroke-width="1" marker-end="url(#arrow)"/>
<line x1="16.670000" y1="116.670000" x2="27.630000" y2="106.430000" stroke="blue" stroke-width="1" marker-end="url(#arrow)"/>
<line x1="16.670000" y1="83.330000" x2="28.950000" y2="74.720000" stroke="blue" stroke-width="1" marker-end="url(#arrow)"/>
<line x1="16.670000" y1="50.000000" x2="29.880000" y2="42.910000" stroke="blue" stroke-width="1" marker-end="url(#arrow)"/>
<line x1="16.670000" y1="16.670000" x2="30.520000" y2="10.930000" stroke="blue" stroke-width="1" marker-end="url(#arrow)"/>
<line x1="50.000000" y1="383.330000" x2="42.910000" y2="370.120000" stroke="blue" stroke-width="1" marker-end="url(#arrow)"/>
<line x1="50.000000" y1="350.000000" x2="44.260000" y2="336.140000" stroke="blue" stroke-width="1" marker-end="url(#arrow)"/>
<line x1="50.000000" y1="316.670000" x2="46.020000" y2="302.200000" stroke="blue" stroke-width="1" marker-end="url(#arrow)"/>
<line x1="50.000000" y1="283.330000" x2="48.290000" y2="268.430000" stroke="blue" stroke-width="1" marker-end="url(#arrow)"/>
<line x1="50.000000" y1="250.000000" x2="51.060000" y2="235.040000" stroke="blue" stroke-width="1" marker-end="url(#arrow)"/>
<line x1="50.000000" y1="216.670000" x2="54.170000" y2="202.260000" stroke="blue" stroke-width="1" marker-end="url(#arrow)"/>
<line x1="50.000000" y1="183.330000" x2="57.240000" y2="170.190000" stroke="blue" stroke-width="1" marker-end="url(#arrow)"/>
<line x1="50.000000" y1="150.000000" x2="59.830000" y2="138.670000" stroke="blue" stroke-width="1" marker-end="url(#arrow)"/>
<line x1="50.000000" y1="116.670000" x2="61.750000" y2="107.340000" stroke="blue" stroke-width="1" marker-end="url(#arrow)"/>
<line x1="50.000000" y1="83.330000" x2="63.040000" y2="75.920000" stroke="blue" stroke-width="1" marker-end="url(#arrow)"/>
<line x1="50.000000" y1="50.000000" x2="63.860000" y2="44.260000" stroke="blue" stroke-width="1" marker-end="url(#arrow)"/>
<line x1="50.000000" y1="16.670000" x2="64.360000" y2="12.330000" stroke="blue" stroke-width="1" marker-end="url(#arrow)"/>
<line x1="83.330000" y1="383.330000" x2="74.720000" y2="371.050000" stroke="blue" stroke-width="1" marker-end="url(#arrow)"/>
<line x1="83.330000" y1="350.000000" x2="75.920000" y2="336.960000" stroke="blue" stroke-width="1" marker-end="url(#arrow)"/>
<line x1="83.330000" y1="316.670000" x2="77.590000" y2="302.810000" stroke="blue" stroke-width="1" marker-end="url(#arrow)"/>
<line x1="83.330000" y1="283.330000" x2="79.950000" y2="268.720000" stroke="blue" stroke-width="1" marker-end="url(#arrow)"/>
<line x1="83.330000" y1="250.000000" x2="83.150000" y2="235.000000" stroke="blue" stroke-width="1" marker-end="url(#arrow)"/>
<line x1="83.330000" y1="216.670000" x2="87.060000" y2="202.140000" stroke="blue" stroke-width="1" marker-end="url(#arrow)"/>
<line x1="83.330000" y1="183.330000" x2="90.980000" y2="170.430000" stroke="blue" stroke-width="1" marker-end="url(#arrow)"/>
<line x1="83.330000" y1="150.000000" x2="94.070000" y2="139.520000" stroke="blue" stroke-width="1" marker-end="url(#arrow)"/>
<line x1="83.330000" y1="116.670000" x2="96.060000" y2="108.730000" stroke="blue" stroke-width="1" marker-end="url(#arrow)"/>
<line x1="83.330000" y1="83.330000" x2="97.190000" y2="77.590000" stroke="blue" stroke-width="1" marker-end="url(#arrow)"/>
<line x1="83.330000" y1="50.000000" x2="97.800000" y2="46.020000" stroke="blue" stroke-width="1" marker-end="url(#arrow)"/>
<line x1="83.330000" y1="16.670000" x2="98.110000" y2="14.070000" stroke="blue" stroke-width="1" marker-end="url(#arrow)"/>
<line x1="116.670000" y1="383.330000" x2="106.430000" y2="372.370000" stroke="blue" stroke-width="1" marker-end="url(#arrow)"/>
<line x1="116.670000" y1="350.000000" x2="107.340000" y2="338.250000" stroke="blue" stroke-width="1" marker-end="url(#arrow)"/>
<line x1="116.670000" y1="316.670000" x2="108.730000" y2="303.940000" stroke="blue" stroke-width="1" marker-end="url(#arrow)"/>
<line x1="116.670000" y1="283.330000" x2="110.930000" y2="269.480000" stroke="blue" stroke-width="1" marker-end="url(#arrow)"/>
<line x1="116.670000" y1="250.000000" x2="114.460000" y2="235.160000" stroke="blue" stroke-width="1" marker-end="url(#arrow)"/>
<line x1="116.670000" y1="216.670000" x2="119.580000" y2="201.950000" stroke="blue" stroke-width="1" marker-end="url(#arrow)"/>
<line x1="116.670000" y1="183.330000" x2="125.010000" y2="170.870000" stroke="blue" stroke-width="1" marker-end="url(#arrow)"/>
<line x1="116.670000" y1="150.000000" x2="128.720000" y2="141.070000" stroke="blue" stroke-width="1" marker-end="url(#arrow)"/>
<line x1="116.670000" y1="116.670000" x2="130.520000" y2="110.930000" stroke="blue" stroke-width="1" marker-end="url(#arrow)"/>
<line x1="116.670000" y1="83.330000" x2="131.280000" y2="79.950000" stroke="blue" stroke-width="1" marker-end="url(#arrow)"/>
<line x1="116.670000" y1="50.000000" x2="131.570000" y2="48.290000" stroke="blue" stroke-width="1" marker-end="url(#arrow)"/>
<line x1="116.670000" y1="16.670000" x2="131.660000" y2="16.160000" stroke="blue" stroke-width="1" marker-end="url(#arrow)"/>
<line x1="150.000000" y1="383.330000" x2="138.140000" y2="374.150000" stroke="blue" stroke-width="1" marker-end="url(#arrow)"/>
<line x1="150.000000" y1="350.000000" x2="138.670000" y2="340.170000" stroke="blue" stroke-width="1" marker-end="url(#arrow)"/>
<line x1="150.000000" y1="316.670000" x2="139.520000" y2="305.930000" stroke="blue" stroke-width="1" marker-end="url(#arrow)"/>
<line x1="150.000000" y1="283.330000" x2="141.070000" y2="271.280000" stroke="blue" stroke-width="1" marker-end="url(#arrow)"/>
<line x1="150.000000" y1="250.000000" x2="144.260000" y2="236.140000" stroke="blue" stroke-width="1" marker-end="url(#arrow)"/>
<line x1="150.000000" y1="216.670000" x2="151.060000" y2="201.700000" stroke="blue" stroke-width="1" marker-end="url(#arrow)"/>
<line x1="150.000000" y1="183.330000" x2="159.830000" y2="172.000000" stroke="blue" stroke-width="1" marker-end="url(#arrow)"/>
<line x1="150.000000" y1="150.000000" x2="163.860000" y2="144.260000" stroke="blue" stroke-width="1" marker-end="url(#arrow)"/>
<line x1="150.000000" y1="116.670000" x2="164.840000" y2="114.460000" stroke="blue" stroke-width="1" marker-end="url(#arrow)"/>
<line x1="150.000000" y1="83.330000" x2="165.000000" y2="83.150000" stroke="blue" stroke-width="1" marker-end="url(#arrow)"/>
<line x1="150.000000" y1="50.000000" x2="164.960000" y2="51.060000" stroke="blue" stroke-width="1" marker-end="url(#arrow)"/>
<line x1="150.000000" y1="16.670000" x2="164.880000" y2="18.560000" stroke="blue" stroke-width="1" marker-end="url(#arrow)"/>
<line x1="183.330000" y1="383.330000" x2="170.050000" y2="376.360000" stroke="blue" stroke-width="1" marker-end="url(#arrow)"/>
<line x1="183.330000" y1="350.000000" x2="170.190000" y2="342.760000" stroke="blue" stroke-width="1" marker-end="url(#arrow)"/>
<line x1="183.330000" y1="316.670000" x2="170.430000" y2="309.020000" stroke="blue" stroke-width="1" marker-end="url(#arrow)"/>
<line x1="183.330000" y1="283.330000" x2="170.870000" y2="274.990000" stroke="blue" stroke-width="1" marker-end="url(#arrow)"/>
<line x1="183.330000" y1="250.000000" x2="172.000000" y2="240.170000" stroke="blue" stroke-width="1" marker-end="url(#arrow)"/>
<line x1="183.330000" y1="216.670000" x2="177.590000" y2="202.810000" stroke="blue" stroke-width="1" marker-end="url(#arrow)"/>
<line x1="183.330000" y1="183.330000" x2="197.190000" y2="177.590000" stroke="blue" stroke-width="1" marker-end="url(#arrow)"/>
<line x1="183.330000" y1="150.000000" x2="198.300000" y2="151.060000" stroke="blue" stroke-width="1" marker-end="url(#arrow)"/>
<line x1="183.330000" y1="116.670000" x2="198.050000" y2="119.580000" stroke="blue" stroke-width="1" marker-end="url(#arrow)"/>
<line x1="183.330000" y1="83.330000" x2="197.860000" y2="87.060000" stroke="blue" stroke-width="1" marker-end="url(#arrow)"/>
<line x1="183.330000" y1="50.000000" x2="197.740000" y2="54.170000" stroke="blue" stroke-width="1" marker-end="url(#arrow)"/>
<line x1="183.330000" y1="16.670000" x2="197.650000" y2="21.130000" stroke="blue" stroke-width="1" marker-end="url(#arrow)"/>
<line x1="216.670000" y1="383.330000" x2="202.350000" y2="378.870000" stroke="blue" stroke-width="1" marker-end="url(#arrow)"/>
<line x1="216.670000" y1="350.000000" x2="202.260000" y2="345.830000" stroke="blue" stroke-width="1" marker-end="url(#arrow)"/>
<line x1="216.670000" y1="316.670000" x2="202.140000" y2="312.940000" stroke="blue" stroke-width="1" marker-end="url(#arrow)"/>
<line x1="216.670000" y1="283.330000" x2="201.950000" y2="280.420000" stroke="blue" stroke-width="1" marker-end="url(#arrow)"/>
<line x1="216.670000" y1="250.000000" x2="201.700000" y2="248.940000" stroke="blue" stroke-width="1" marker-end="url(#arrow)"/>
<line x1="216.670000" y1="216.670000" x2="202.810000" y2="222.410000" stroke="blue" stroke-width="1" marker-end="url(#arrow)"/>
<line x1="216.670000" y1="183.330000" x2="222.410000" y2="197.190000" stroke="blue" stroke-width="1" marker-end="url(#arrow)"/>
<line x1="216.670000" y1="150.000000" x2="228.000000" y2="159.830000" stroke="blue" stroke-width="1" marker-end="url(#arrow)"/>
<line x1="216.670000" y1="116.670000" x2="229.130000" y2="125.010000" stroke="blue" stroke-width="1" marker-end="url(#arrow)"/>
<line x1="216.670000" y1="83.330000" x2="229.570000" y2="90.980000" stroke="blue" stroke-width="1" marker-end="url(#arrow)"/>
<line x1="216.670000" y1="50.000000" x2="229.810000" y2="57.240000" stroke="blue" stroke-width="1" marker-end="url(#arrow)"/>
<line x1="216.670000" y1="16.670000" x2="229.950000" y2="23.640000" stroke="blue" stroke-width="1" marker-end="url(#arrow)"/>
<line x1="250.000000" y1="383.330000" x2="235.120000" y2="381.440000" stroke="blue" stroke-width="1" marker-end="url(#arrow)"/>
<line x1="250.000000" y1="350.000000" x2="235.040000" y2="348.940000" stroke="blue" stroke-width="1" marker-end="url(#arrow)"/>
<line x1="250.000000" y1="316.670000" x2="235.000000" y2="316.850000" stroke="blue" stroke-width="1" marker-end="url(#arrow)"/>
<line x1="250.000000" y1="283.330000" x2="235.160000" y2="285.540000" stroke="blue" stroke-width="1" marker-end="url(#arrow)"/>
<line x1="250.000000" y1="250.000000" x2="236.140000" y2="255.740000" stroke="blue" stroke-width="1" marker-end="url(#arrow)"/>
<line x1="250.000000" y1="216.670000" x2="240.170000" y2="228.000000" stroke="blue" stroke-width="1" marker-end="url(#arrow)"/>
<line x1="250.000000" y1="183.330000" x2="248.940000" y2="198.300000" stroke="blue" stroke-width="1" marker-end="url(#arrow)"/>
<line x1="250.000000" y1="150.000000" x2="255.740000" y2="163.860000" stroke="blue" stroke-width="1" marker-end="url(#arrow)"/>
<line x1="250.000000" y1="116.670000" x2="258.930000" y2="128.720000" stroke="blue" stroke-width="1" marker-end="url(#arrow)"/>
<line x1="250.000000" y1="83.330000" x2="260.480000" y2="94.070000" stroke="blue" stroke-width="1" marker-end="url(#arrow)"/>
<line x1="250.000000" y1="50.000000" x2="261.330000" y2="59.830000" stroke="blue" stroke-width="1" marker-end="url(#arrow)"/>
<line x1="250.000000" y1="16.670000" x2="261.860000" y2="25.850000" stroke="blue" stroke-width="1" marker-end="url(#arrow)"/>
<line x1="283.330000" y1="383.330000" x2="268.340000" y2="383.840000" stroke="blue" stroke-width="1" marker-end="url(#arrow)"/>
<line x1="283.330000" y1="350.000000" x2="268.430000" y2="351.710000" stroke="blue" stroke-width="1" marker-end="url(#arrow)"/>
<line x1="283.330000" y1="316.670000" x2="268.720000" y2="320.050000" stroke="blue" stroke-width="1" marker-end="url(#arrow)"/>
<line x1="283.330000" y1="283.330000" x2="269.480000" y2="289.070000" stroke="blue" stroke-width="1" marker-end="url(#arrow)"/>
<line x1="283.330000" y1="250.000000" x2="271.280000" y2="258.930000" stroke="blue" stroke-width="1" marker-end="url(#arrow)"/>
<line x1="283.330000" y1="216.670000" x2="274.990000" y2="229.130000" stroke="blue" stroke-width="1" marker-end="url(#arrow)"/>
<line x1="283.330000" y1="183.330000" x2="280.420000" y2="198.050000" stroke="blue" stroke-width="1" marker-end="url(#arrow)"/>
<line x1="283.330000" y1="150.000000" x2="285.540000" y2="164.840000" stroke="blue" stroke-width="1" marker-end="url(#arrow)"/>
<line x1="283.330000" y1="116.670000" x2="289.070000" y2="130.520000" stroke="blue" stroke-width="1" marker-end="url(#arrow)"/>
<line x1="283.330000" y1="83.330000" x2="291.270000" y2="96.060000" stroke="blue" stroke-width="1" marker-end="url(#arrow)"/>
<line x1="283.330000" y1="50.000000" x2="292.660000" y2="61.750000" stroke="blue" stroke-width="1" marker-end="url(#arrow)"/>
<line x1="283.330000" y1="16.670000" x2="293.570000" y2="27.630000" stroke="blue" stroke-width="1" marker-end="url(#arrow)"/>
<line x1="316.670000" y1="383.330000" x2="301.890000" y2="385.930000" stroke="blue" stroke-width="1" marker-end="url(#arrow)"/>
<line x1="316.670000" y1="350.000000" x2="302.200000" y2="353.980000" stroke="blue" stroke-width="1" marker-end="url(#arrow)"/>
<line x1="316.670000" y1="316.670000" x2="302.810000" y2="322.410000" stroke="blue" stroke-width="1" marker-end="url(#arrow)"/>
<line x1="316.670000" y1="283.330000" x2="303.940000" y2="291.270000" stroke="blue" stroke-width="1" marker-end="url(#arrow)"/>
<line x1="316.670000" y1="250.000000" x2="305.930000" y2="260.480000" stroke="blue" stroke-width="1" marker-end="url(#arrow)"/>
<line x1="316.670000" y1="216.670000" x2="309.020000" y2="229.570000" stroke="blue" stroke-width="1" marker-end="url(#arrow)"/>
<line x1="316.670000" y1="183.330000" x2="312.940000" y2="197.860000" stroke="blue" stroke-width="1" marker-end="url(#arrow)"/>
<line x1="316.670000" y1="150.000000" x2="316.850000" y2="165.000000" stroke="blue" stroke-width="1" marker-end="url(#arrow)"/>
<line x1="316.670000" y1="116.670000" x2="320.050000" y2="131.280000" stroke="blue" stroke-width="1" marker-end="url(#arrow)"/>
<line x1="316.670000" y1="83.330000" x2="322.410000" y2="97.190000" stroke="blue" stroke-width="1" marker-end="url(#arrow)"/>
<line x1="316.670000" y1="50.000000" x2="324.080000" y2="63.040000" stroke="blue" stroke-width="1" marker-end="url(#arrow)"/>
<line x1="316.670000" y1="16.670000" x2="325.280000" y2="28.950000" stroke="blue" stroke-width="1" marker-end="url(#arrow)"/>
<line x1="350.000000" y1="383.330000" x2="335.640000" y2="387.670000" stroke="blue" stroke-width="1" marker-end="url(#arrow)"/>
<line x1="350.000000" y1="350.000000" x2="336.140000" y2="355.740000" stroke="blue" stroke-width="1" marker-end="url(#arrow)"/>
<line x1="350.000000" y1="316.670000" x2="336.960000" y2="324.080000" stroke="blue" stroke-width="1" marker-end="url(#arrow)"/>
<line x1="350.000000" y1="283.330000" x2="338.250000" y2="292.660000" stroke="blue" stroke-width="1" marker-end="url(#arrow)"/>
<line x1="350.000000" y1="250.000000" x2="340.170000" y2="261.330000" stroke="blue" stroke-width="1" marker-end="url(#arrow)"/>
<line x1="350.000000" y1="216.670000" x2="342.760000" y2="229.810000" stroke="blue" stroke-width="1" marker-end="url(#arrow)"/>
<line x1="350.000000" y1="183.330000" x2="345.830000" y2="197.740000" stroke="blue" stroke-width="1" marker-end="url(#arrow)"/>
<line x1="350.000000" y1="150.000000" x2="348.940000" y2="164.960000" stroke="blue" stroke-width="1" marker-end="url(#arrow)"/>
<line x1="350.000000" y1="116.670000" x2="351.710000" y2="131.570000" stroke="blue" stroke-width="1" marker-end="url(#arrow)"/>
<line x1="350.000000" y1="83.330000" x2="353.980000" y2="97.800000" stroke="blue" stroke-width="1" marker-end="url(#arrow)"/>
<line x1="350.000000" y1="50.000000" x2="355.740000" y2="63.860000" stroke="blue" stroke-width="1" marker-end="url(#arrow)"/>
<line x1="350.000000" y1="16.670000" x2="357.090000" y2="29.880000" stroke="blue" stroke-width="1" marker-end="url(#arrow)"/>
<line x1="383.330000" y1="383.330000" x2="369.480000" y2="389.070000" stroke="blue" stroke-width="1" marker-end="url(#arrow)"/>
<line x1="383.330000" y1="350.000000" x2="370.120000" y2="357.090000" stroke="blue" stroke-width="1" marker-end="url(#arrow)"/>
<line x1="383.330000" y1="316.670000" x2="371.050000" y2="325.280000" stroke="blue" stroke-width="1" marker-end="url(#arrow)"/>
<line x1="383.330000" y1="283.330000" x2="372.370000" y2="293.570000" stroke="blue" stroke-width="1" marker-end="url(#arrow)"/>
<line x1="383.330000" y1="250.000000" x2="374.150000" y2="261.860000" stroke="blue" stroke-width="1" marker-end="url(#arrow)"/>
<line x1="383.330000" y1="216.670000" x2="376.360000" y2="229.950000" stroke="blue" stroke-width="1" marker-end="url(#arrow)"/>
<line x1="383.330000" y1="183.330000" x2="378.870000" y2="197.650000" stroke="blue" stroke-width="1" marker-end="url(#arrow)"/>
<line x1="383.330000" y1="150.000000" x2="381.440000" y2="164.880000" stroke="blue" stroke-width="1" marker-end="url(#arrow)"/>
<line x1="383.330000" y1="116.670000" x2="383.840000" y2="131.660000" stroke="blue" stroke-width="1" marker-end="url(#arrow)"/>
<line x1="383.330000" y1="83.330000" x2="385.930000" y2="98.110000" stroke="blue" stroke-width="1" marker-end="url(#arrow)"/>
<line x1="383.330000" y1="50.000000" x2="387.670000" y2="64.360000" stroke="blue" stroke-width="1" marker-end="url(#arrow)"/>
<line x1="383.330000" y1="16.670000" x2="389.070000" y2="30.520000" stroke="blue" stroke-width="1" marker-end="url(#arrow)"/>
</svg>